<svg xmlns="http://www.w3.org/2000/svg" viewBox="0 0 64 64" width="64" height="64">
  <defs>
    <radialGradient id="g" cx="50%" cy="50%" r="50%">
      <stop offset="0%" stop-color="#d8b878"/>
      <stop offset="100%" stop-color="#5a4020"/>
    </radialGradient>
  </defs>
  <rect width="64" height="64" fill="#08060a"/>
  <!-- Körper -->
  <rect x="30" y="18" width="4" height="32" fill="#1a0e08" rx="1"/>
  <!-- Obere Flügel -->
  <ellipse cx="20" cy="26" rx="13" ry="9" fill="url(#g)" transform="rotate(-12 20 26)"/>
  <ellipse cx="44" cy="26" rx="13" ry="9" fill="url(#g)" transform="rotate(12 44 26)"/>
  <!-- Untere Flügel -->
  <ellipse cx="22" cy="42" rx="10" ry="7" fill="#5a4020" transform="rotate(-8 22 42)"/>
  <ellipse cx="42" cy="42" rx="10" ry="7" fill="#5a4020" transform="rotate(8 42 42)"/>
  <!-- Adern -->
  <g stroke="#1a0e08" stroke-width="1" fill="none" opacity="0.6">
    <path d="M20,26 L12,20 M20,26 L10,30 M20,26 L14,18"/>
    <path d="M44,26 L52,20 M44,26 L54,30 M44,26 L50,18"/>
    <path d="M22,42 L14,46 M22,42 L16,38"/>
    <path d="M42,42 L50,46 M42,42 L48,38"/>
  </g>
</svg>
